# xmcd CD database file
#
# Track frame offsets:
#	188
#	25238
#	34613
#	56663
#	71438
#	85163
#	97013
#	108788
#	117488
#	130313
#	144788
#	152363
#	171338
#	185588
#	198338
#	205688
#	217838
#
# Disc length: 3064 seconds
#
# Revision: 0
# Processed by: cddbd v1.5.2PL0 Copyright (c) Steve Scherf et al.
# Submitted via: CDex 1.70beta2
#
DISCID=e30bf611
DTITLE=varios - jazz a cataliuya
DYEAR=1993
DGENRE=Jazz
TTITLE0=yesterdays (tete montoliu, erich peter,billie brooks,booker ervin)
TTITLE1=schoochee coochee (tete montoliu, erich peter,billie brooks,booker ervin)
TTITLE2=just friends (tete montoliu, erich peter,billie brooks,booker ervin)
TTITLE3=el blues d'en booker (tete montoliu, erich peter,billie brooks,booker ervin)
TTITLE4=el cant dles ocells (lou bennett)
TTITLE5=el noi de la mare (lou bennett)
TTITLE6=muntanyes regalades (lou bennett)
TTITLE7=canço del lladre (lou bennett)
TTITLE8=la filla del marxant (catalonia jazz cuartet)
TTITLE9=la pastoreta caterina  (catalonia jazz cuartet)
TTITLE10=el desenbre congelat (catalonia jazz cuartet)
TTITLE11=al testament d'amalia (catalonia jazz cuartet)
TTITLE12=la preso del rei de frança (catalonia jazz cuartet)
TTITLE13=la preso de lleida (catalonia jazz cuartet)
TTITLE14=la fugida de egipte (catalonia jazz cuartet)
TTITLE15=la filadora (catalonia jazz cuartet)
TTITLE16=l'hereu riera (catalonia jazz cuartet)
EXTD=YEAR: 1993
EXTT0=
EXTT1=
EXTT2=
EXTT3=
EXTT4=
EXTT5=
EXTT6=
EXTT7=
EXTT8=
EXTT9=
EXTT10=
EXTT11=
EXTT12=
EXTT13=
EXTT14=
EXTT15=
EXTT16=
PLAYORDER=
